<mxfile host="app.diagrams.net" modified="2023-11-18T03:20:17.438Z" agent="Mozilla/5.0 (Windows NT 10.0; Win64; x64) AppleWebKit/537.36 (KHTML, like Gecko) Chrome/118.0.0.0 Safari/537.36 OPR/104.0.0.0 (Edition Yx 05)" etag="2XPisa3pvlPN__7qLwrP" version="22.1.2" type="github">
  <diagram name="Страница — 1" id="RygN27f7wWlG2719hhbA">
    <mxGraphModel dx="1230" dy="1897" grid="1" gridSize="10" guides="1" tooltips="1" connect="1" arrows="1" fold="1" page="1" pageScale="1" pageWidth="827" pageHeight="1169" math="0" shadow="0">
      <root>
        <mxCell id="0" />
        <mxCell id="1" parent="0" />
        <mxCell id="-D2j0t36EasNuuJK0pfv-47" value="" style="rounded=0;whiteSpace=wrap;html=1;" vertex="1" parent="1">
          <mxGeometry x="200" y="-100" width="380" height="130" as="geometry" />
        </mxCell>
        <mxCell id="-D2j0t36EasNuuJK0pfv-45" value="" style="rounded=0;whiteSpace=wrap;html=1;" vertex="1" parent="1">
          <mxGeometry x="120" y="50" width="460" height="240" as="geometry" />
        </mxCell>
        <mxCell id="-D2j0t36EasNuuJK0pfv-2" value="Article" style="text;html=1;align=center;verticalAlign=middle;whiteSpace=wrap;rounded=0;strokeColor=#000000;fillColor=#f5f5f5;fontColor=#000000;" vertex="1" parent="1">
          <mxGeometry x="250" y="70" width="70" height="20" as="geometry" />
        </mxCell>
        <mxCell id="-D2j0t36EasNuuJK0pfv-3" value="Source" style="text;html=1;align=center;verticalAlign=middle;whiteSpace=wrap;rounded=0;strokeColor=#000000;fillColor=#f5f5f5;fontColor=#000000;" vertex="1" parent="1">
          <mxGeometry x="250" y="129" width="70" height="20" as="geometry" />
        </mxCell>
        <mxCell id="-D2j0t36EasNuuJK0pfv-6" value="SourceFull" style="text;html=1;align=center;verticalAlign=middle;whiteSpace=wrap;rounded=0;strokeColor=#000000;fillColor=#f5f5f5;fontColor=#000000;" vertex="1" parent="1">
          <mxGeometry x="250" y="99" width="70" height="20" as="geometry" />
        </mxCell>
        <mxCell id="-D2j0t36EasNuuJK0pfv-7" value="Filters:&lt;br&gt;1. Date/Period&lt;br&gt;2. SortType&lt;br&gt;3. Language" style="text;html=1;align=center;verticalAlign=middle;whiteSpace=wrap;rounded=0;strokeColor=#000000;fillColor=#f5f5f5;fontColor=#000000;" vertex="1" parent="1">
          <mxGeometry x="480" y="69" width="90" height="80" as="geometry" />
        </mxCell>
        <mxCell id="-D2j0t36EasNuuJK0pfv-9" value="" style="rounded=0;whiteSpace=wrap;html=1;fillColor=#f5f5f5;fontColor=#000000;strokeColor=#000000;" vertex="1" parent="1">
          <mxGeometry x="230" y="160" width="340" height="120" as="geometry" />
        </mxCell>
        <mxCell id="-D2j0t36EasNuuJK0pfv-10" value="StoreDataUseCase" style="text;html=1;align=center;verticalAlign=middle;whiteSpace=wrap;rounded=0;fillColor=default;strokeColor=default;fontColor=#000000;" vertex="1" parent="1">
          <mxGeometry x="241" y="245" width="119" height="20" as="geometry" />
        </mxCell>
        <mxCell id="-D2j0t36EasNuuJK0pfv-11" value="GetDataUseCaseCoroutines" style="text;html=1;align=center;verticalAlign=middle;whiteSpace=wrap;rounded=0;fillColor=default;strokeColor=default;fontColor=#000000;" vertex="1" parent="1">
          <mxGeometry x="390" y="185" width="169" height="20" as="geometry" />
        </mxCell>
        <mxCell id="-D2j0t36EasNuuJK0pfv-12" value="GetDataByIdUseCaseCoroutines" style="text;html=1;align=center;verticalAlign=middle;whiteSpace=wrap;rounded=0;fillColor=default;strokeColor=default;fontColor=#000000;" vertex="1" parent="1">
          <mxGeometry x="370" y="244" width="190" height="21" as="geometry" />
        </mxCell>
        <mxCell id="-D2j0t36EasNuuJK0pfv-13" value="DeleteDataUseCase" style="text;html=1;align=center;verticalAlign=middle;whiteSpace=wrap;rounded=0;fillColor=default;strokeColor=default;fontColor=#000000;" vertex="1" parent="1">
          <mxGeometry x="240" y="215" width="130" height="20" as="geometry" />
        </mxCell>
        <mxCell id="-D2j0t36EasNuuJK0pfv-18" value="GetDataUseCaseRx" style="text;html=1;align=center;verticalAlign=middle;whiteSpace=wrap;rounded=0;fillColor=default;strokeColor=default;fontColor=#000000;" vertex="1" parent="1">
          <mxGeometry x="240" y="185" width="120" height="20" as="geometry" />
        </mxCell>
        <mxCell id="-D2j0t36EasNuuJK0pfv-22" value="SearchDataUseCaseRx" style="text;html=1;align=center;verticalAlign=middle;whiteSpace=wrap;rounded=0;fillColor=default;strokeColor=default;fontColor=#000000;" vertex="1" parent="1">
          <mxGeometry x="410" y="215" width="150" height="20" as="geometry" />
        </mxCell>
        <mxCell id="-D2j0t36EasNuuJK0pfv-32" value="StoreDataRepo" style="text;html=1;strokeColor=#000000;fillColor=#f5f5f5;align=center;verticalAlign=middle;whiteSpace=wrap;rounded=0;fontColor=#000000;" vertex="1" parent="1">
          <mxGeometry x="380" width="190" height="20" as="geometry" />
        </mxCell>
        <mxCell id="-D2j0t36EasNuuJK0pfv-33" value="DeleteDataRepo" style="text;html=1;strokeColor=#000000;fillColor=#f5f5f5;align=center;verticalAlign=middle;whiteSpace=wrap;rounded=0;fontColor=#000000;" vertex="1" parent="1">
          <mxGeometry x="210" width="130" height="20" as="geometry" />
        </mxCell>
        <mxCell id="-D2j0t36EasNuuJK0pfv-34" value="GetDataRepoCoroutines" style="text;html=1;strokeColor=#000000;fillColor=#f5f5f5;align=center;verticalAlign=middle;whiteSpace=wrap;rounded=0;fontColor=#000000;" vertex="1" parent="1">
          <mxGeometry x="380" y="-60" width="190" height="20" as="geometry" />
        </mxCell>
        <mxCell id="-D2j0t36EasNuuJK0pfv-35" value="GetDataRepoRx" style="text;html=1;strokeColor=#000000;fillColor=#f5f5f5;align=center;verticalAlign=middle;whiteSpace=wrap;rounded=0;fontColor=#000000;" vertex="1" parent="1">
          <mxGeometry x="210" y="-60" width="130" height="20" as="geometry" />
        </mxCell>
        <mxCell id="-D2j0t36EasNuuJK0pfv-36" value="GetDataByIdRepoCoroutines" style="text;html=1;strokeColor=#000000;fillColor=#f5f5f5;align=center;verticalAlign=middle;whiteSpace=wrap;rounded=0;fontColor=#000000;" vertex="1" parent="1">
          <mxGeometry x="380" y="-29" width="190" height="20" as="geometry" />
        </mxCell>
        <mxCell id="-D2j0t36EasNuuJK0pfv-39" value="SearchDataRepoRx" style="text;html=1;strokeColor=#000000;fillColor=#f5f5f5;align=center;verticalAlign=middle;whiteSpace=wrap;rounded=0;fontColor=#000000;" vertex="1" parent="1">
          <mxGeometry x="210" y="-29" width="130" height="20" as="geometry" />
        </mxCell>
        <mxCell id="-D2j0t36EasNuuJK0pfv-41" value="Base Repositories" style="text;html=1;strokeColor=none;fillColor=none;align=center;verticalAlign=middle;whiteSpace=wrap;rounded=0;fontStyle=1" vertex="1" parent="1">
          <mxGeometry x="290" y="-90" width="190" height="20" as="geometry" />
        </mxCell>
        <mxCell id="-D2j0t36EasNuuJK0pfv-44" value="Domain" style="text;html=1;strokeColor=none;fillColor=none;align=center;verticalAlign=middle;whiteSpace=wrap;rounded=0;fontStyle=1" vertex="1" parent="1">
          <mxGeometry x="290" y="50" width="190" height="20" as="geometry" />
        </mxCell>
        <mxCell id="-D2j0t36EasNuuJK0pfv-46" value="UseCases" style="text;html=1;strokeColor=none;fillColor=none;align=center;verticalAlign=middle;whiteSpace=wrap;rounded=0;fontStyle=1" vertex="1" parent="1">
          <mxGeometry x="305" y="160" width="190" height="20" as="geometry" />
        </mxCell>
        <mxCell id="-D2j0t36EasNuuJK0pfv-48" value="" style="rounded=0;whiteSpace=wrap;html=1;" vertex="1" parent="1">
          <mxGeometry x="200" y="-270" width="330" height="140" as="geometry" />
        </mxCell>
        <mxCell id="-D2j0t36EasNuuJK0pfv-49" value="&lt;b&gt;SharedPrefsFiltersRepo&lt;/b&gt;" style="text;html=1;strokeColor=none;fillColor=none;align=center;verticalAlign=middle;whiteSpace=wrap;rounded=0;" vertex="1" parent="1">
          <mxGeometry x="285" y="-260" width="160" height="20" as="geometry" />
        </mxCell>
        <mxCell id="-D2j0t36EasNuuJK0pfv-50" value="" style="rounded=0;whiteSpace=wrap;html=1;fillColor=#f5f5f5;fontColor=#333333;strokeColor=#000000;" vertex="1" parent="1">
          <mxGeometry x="210" y="-230" width="160" height="90" as="geometry" />
        </mxCell>
        <mxCell id="-D2j0t36EasNuuJK0pfv-51" value="&lt;b&gt;Implements&lt;/b&gt;" style="text;html=1;strokeColor=none;fillColor=none;align=center;verticalAlign=middle;whiteSpace=wrap;rounded=0;" vertex="1" parent="1">
          <mxGeometry x="220" y="-230" width="140" height="20" as="geometry" />
        </mxCell>
        <mxCell id="-D2j0t36EasNuuJK0pfv-57" value="GetDataRepoCoroutines" style="text;html=1;align=center;verticalAlign=middle;whiteSpace=wrap;rounded=0;fillColor=default;strokeColor=default;" vertex="1" parent="1">
          <mxGeometry x="220" y="-200" width="140" height="20" as="geometry" />
        </mxCell>
        <mxCell id="-D2j0t36EasNuuJK0pfv-63" value="StoreDataRepo" style="text;html=1;align=center;verticalAlign=middle;whiteSpace=wrap;rounded=0;fillColor=default;strokeColor=default;" vertex="1" parent="1">
          <mxGeometry x="220" y="-170" width="140" height="20" as="geometry" />
        </mxCell>
        <mxCell id="-D2j0t36EasNuuJK0pfv-64" value="" style="rounded=0;whiteSpace=wrap;html=1;fillColor=#f5f5f5;fontColor=#333333;strokeColor=#000000;" vertex="1" parent="1">
          <mxGeometry x="380" y="-230" width="140" height="90" as="geometry" />
        </mxCell>
        <mxCell id="-D2j0t36EasNuuJK0pfv-65" value="&lt;b&gt;Constructor&lt;/b&gt;" style="text;html=1;strokeColor=none;fillColor=none;align=center;verticalAlign=middle;whiteSpace=wrap;rounded=0;" vertex="1" parent="1">
          <mxGeometry x="390" y="-230" width="120" height="20" as="geometry" />
        </mxCell>
        <mxCell id="-D2j0t36EasNuuJK0pfv-66" value="SharedPreferences" style="text;html=1;align=center;verticalAlign=middle;whiteSpace=wrap;rounded=0;fillColor=default;strokeColor=default;" vertex="1" parent="1">
          <mxGeometry x="390" y="-200" width="120" height="20" as="geometry" />
        </mxCell>
        <mxCell id="-D2j0t36EasNuuJK0pfv-69" value="Gson" style="text;html=1;align=center;verticalAlign=middle;whiteSpace=wrap;rounded=0;fillColor=default;strokeColor=default;" vertex="1" parent="1">
          <mxGeometry x="390" y="-170" width="120" height="20" as="geometry" />
        </mxCell>
        <mxCell id="-D2j0t36EasNuuJK0pfv-80" value="" style="endArrow=none;html=1;rounded=0;strokeWidth=2;strokeColor=#FF1D0D;" edge="1" parent="1">
          <mxGeometry width="50" height="50" relative="1" as="geometry">
            <mxPoint x="20" y="-110" as="sourcePoint" />
            <mxPoint x="1362.2222222222222" y="-110" as="targetPoint" />
          </mxGeometry>
        </mxCell>
        <mxCell id="-D2j0t36EasNuuJK0pfv-81" value="" style="rounded=0;whiteSpace=wrap;html=1;" vertex="1" parent="1">
          <mxGeometry x="559" y="-260" width="310" height="130" as="geometry" />
        </mxCell>
        <mxCell id="-D2j0t36EasNuuJK0pfv-82" value="&lt;b&gt;SearchDataRepo&lt;/b&gt;" style="text;html=1;strokeColor=none;fillColor=none;align=center;verticalAlign=middle;whiteSpace=wrap;rounded=0;" vertex="1" parent="1">
          <mxGeometry x="634" y="-260" width="160" height="20" as="geometry" />
        </mxCell>
        <mxCell id="-D2j0t36EasNuuJK0pfv-83" value="" style="rounded=0;whiteSpace=wrap;html=1;fillColor=#f5f5f5;fontColor=#333333;strokeColor=#000000;" vertex="1" parent="1">
          <mxGeometry x="569" y="-230" width="140" height="90" as="geometry" />
        </mxCell>
        <mxCell id="-D2j0t36EasNuuJK0pfv-84" value="&lt;b&gt;Implements&lt;/b&gt;" style="text;html=1;strokeColor=none;fillColor=none;align=center;verticalAlign=middle;whiteSpace=wrap;rounded=0;" vertex="1" parent="1">
          <mxGeometry x="579" y="-230" width="120" height="20" as="geometry" />
        </mxCell>
        <mxCell id="-D2j0t36EasNuuJK0pfv-85" value="SearchDataRepoRx" style="text;html=1;align=center;verticalAlign=middle;whiteSpace=wrap;rounded=0;fillColor=default;strokeColor=default;" vertex="1" parent="1">
          <mxGeometry x="579" y="-200" width="120" height="20" as="geometry" />
        </mxCell>
        <mxCell id="-D2j0t36EasNuuJK0pfv-86" value="" style="rounded=0;whiteSpace=wrap;html=1;fillColor=#f5f5f5;fontColor=#333333;strokeColor=#000000;" vertex="1" parent="1">
          <mxGeometry x="719" y="-230" width="140" height="90" as="geometry" />
        </mxCell>
        <mxCell id="-D2j0t36EasNuuJK0pfv-87" value="&lt;b&gt;Constructor&lt;/b&gt;" style="text;html=1;strokeColor=none;fillColor=none;align=center;verticalAlign=middle;whiteSpace=wrap;rounded=0;" vertex="1" parent="1">
          <mxGeometry x="729" y="-230" width="120" height="20" as="geometry" />
        </mxCell>
        <mxCell id="-D2j0t36EasNuuJK0pfv-88" value="RetrofitNetworkClient" style="text;html=1;align=center;verticalAlign=middle;whiteSpace=wrap;rounded=0;fillColor=default;strokeColor=default;" vertex="1" parent="1">
          <mxGeometry x="729" y="-200" width="120" height="20" as="geometry" />
        </mxCell>
        <mxCell id="-D2j0t36EasNuuJK0pfv-104" value="" style="rounded=0;whiteSpace=wrap;html=1;" vertex="1" parent="1">
          <mxGeometry x="900" y="-330" width="350" height="200" as="geometry" />
        </mxCell>
        <mxCell id="-D2j0t36EasNuuJK0pfv-105" value="&lt;b&gt;ArticleDbRepoCoroutines&lt;/b&gt;" style="text;html=1;strokeColor=none;fillColor=none;align=center;verticalAlign=middle;whiteSpace=wrap;rounded=0;" vertex="1" parent="1">
          <mxGeometry x="985" y="-320" width="160" height="20" as="geometry" />
        </mxCell>
        <mxCell id="-D2j0t36EasNuuJK0pfv-106" value="" style="rounded=0;whiteSpace=wrap;html=1;fillColor=#f5f5f5;fontColor=#333333;strokeColor=#000000;" vertex="1" parent="1">
          <mxGeometry x="910" y="-290" width="180" height="150" as="geometry" />
        </mxCell>
        <mxCell id="-D2j0t36EasNuuJK0pfv-107" value="&lt;b&gt;Implements&lt;/b&gt;" style="text;html=1;strokeColor=none;fillColor=none;align=center;verticalAlign=middle;whiteSpace=wrap;rounded=0;" vertex="1" parent="1">
          <mxGeometry x="930" y="-290" width="120" height="20" as="geometry" />
        </mxCell>
        <mxCell id="-D2j0t36EasNuuJK0pfv-108" value="StoreDataRepo" style="text;html=1;align=center;verticalAlign=middle;whiteSpace=wrap;rounded=0;fillColor=default;strokeColor=default;" vertex="1" parent="1">
          <mxGeometry x="920" y="-260" width="160" height="20" as="geometry" />
        </mxCell>
        <mxCell id="-D2j0t36EasNuuJK0pfv-109" value="" style="rounded=0;whiteSpace=wrap;html=1;fillColor=#f5f5f5;fontColor=#333333;strokeColor=#000000;" vertex="1" parent="1">
          <mxGeometry x="1100" y="-290" width="140" height="150" as="geometry" />
        </mxCell>
        <mxCell id="-D2j0t36EasNuuJK0pfv-110" value="&lt;b&gt;Constructor&lt;/b&gt;" style="text;html=1;strokeColor=none;fillColor=none;align=center;verticalAlign=middle;whiteSpace=wrap;rounded=0;" vertex="1" parent="1">
          <mxGeometry x="1110" y="-290" width="120" height="20" as="geometry" />
        </mxCell>
        <mxCell id="-D2j0t36EasNuuJK0pfv-111" value="ArticleDbDao" style="text;html=1;align=center;verticalAlign=middle;whiteSpace=wrap;rounded=0;fillColor=default;strokeColor=default;" vertex="1" parent="1">
          <mxGeometry x="1110" y="-260" width="120" height="20" as="geometry" />
        </mxCell>
        <mxCell id="-D2j0t36EasNuuJK0pfv-112" value="DeleteDataRepo" style="text;html=1;align=center;verticalAlign=middle;whiteSpace=wrap;rounded=0;fillColor=default;strokeColor=default;" vertex="1" parent="1">
          <mxGeometry x="920" y="-230" width="160" height="20" as="geometry" />
        </mxCell>
        <mxCell id="-D2j0t36EasNuuJK0pfv-113" value="GetDataRepoCoroutines" style="text;html=1;align=center;verticalAlign=middle;whiteSpace=wrap;rounded=0;fillColor=default;strokeColor=default;" vertex="1" parent="1">
          <mxGeometry x="920" y="-200" width="160" height="20" as="geometry" />
        </mxCell>
        <mxCell id="-D2j0t36EasNuuJK0pfv-114" value="GetDataByIdRepoCoroutines" style="text;html=1;align=center;verticalAlign=middle;whiteSpace=wrap;rounded=0;fillColor=default;strokeColor=default;" vertex="1" parent="1">
          <mxGeometry x="920" y="-170" width="160" height="20" as="geometry" />
        </mxCell>
        <mxCell id="-D2j0t36EasNuuJK0pfv-125" value="&lt;h1&gt;ContentF -&amp;gt; ArticleF&lt;/h1&gt;&lt;p style=&quot;font-size: 14px;&quot;&gt;&lt;font style=&quot;font-size: 13px;&quot;&gt;-&lt;/font&gt;&lt;font style=&quot;font-size: 14px;&quot;&gt; При переходе на экран статьи передавать &lt;b style=&quot;&quot;&gt;объект&lt;/b&gt; через FragmentFactory.&lt;br&gt;&lt;/font&gt;&lt;/p&gt;&lt;p style=&quot;font-size: 14px;&quot;&gt;&lt;font style=&quot;font-size: 14px;&quot;&gt;Не использовать SharedPreferences, чтобы не писать несколько репозиториев&lt;/font&gt;&lt;/p&gt;&lt;p style=&quot;font-size: 14px;&quot;&gt;&lt;font style=&quot;font-size: 14px;&quot;&gt;Не использовать БД, потому что в ней хранятся только сохраненные статьи&lt;/font&gt;&lt;/p&gt;" style="text;html=1;strokeColor=#000000;fillColor=#F8EBE7;spacing=5;spacingTop=-20;whiteSpace=wrap;overflow=hidden;rounded=0;" vertex="1" parent="1">
          <mxGeometry x="600" y="-100" width="260" height="220" as="geometry" />
        </mxCell>
        <mxCell id="-D2j0t36EasNuuJK0pfv-127" value="&lt;h1&gt;Поиск&lt;/h1&gt;&lt;p style=&quot;font-size: 14px;&quot;&gt;&lt;font style=&quot;font-size: 14px;&quot;&gt;На разных экранах разная логика.&amp;nbsp;&lt;/font&gt;&lt;/p&gt;&lt;p style=&quot;font-size: 14px;&quot;&gt;&lt;font style=&quot;font-size: 14px;&quot;&gt;Хранить в sharedPreferences текущую Category, фильтры.&lt;/font&gt;&lt;/p&gt;&lt;p style=&quot;font-size: 14px;&quot;&gt;&lt;font style=&quot;font-size: 14px;&quot;&gt;На экранах Headlines в onResume сохранять текущее состояние.&lt;/font&gt;&lt;/p&gt;&lt;p style=&quot;font-size: 14px;&quot;&gt;&lt;font style=&quot;font-size: 14px;&quot;&gt;На экране с сохраненными производить поиск по БД&lt;/font&gt;&lt;/p&gt;&lt;p style=&quot;font-size: 14px;&quot;&gt;&lt;font style=&quot;font-size: 14px;&quot;&gt;На экране с источниками искать источники&lt;/font&gt;&lt;/p&gt;&lt;p style=&quot;font-size: 14px;&quot;&gt;&lt;font style=&quot;font-size: 14px;&quot;&gt;На экране с новостями Источника искать среди новостей источника&lt;/font&gt;&lt;/p&gt;&lt;p style=&quot;font-size: 14px;&quot;&gt;&lt;font style=&quot;font-size: 14px;&quot;&gt;На экранах Headlines искать соответствующие категории новости.&lt;/font&gt;&lt;/p&gt;&lt;p style=&quot;font-size: 14px;&quot;&gt;&lt;font style=&quot;font-size: 14px;&quot;&gt;-&amp;gt; Запрос должен формироваться динамически в репозитории поиска в зависимости от текущих условий.&lt;/font&gt;&lt;/p&gt;&lt;p style=&quot;font-size: 14px;&quot;&gt;&lt;font style=&quot;font-size: 14px;&quot;&gt;&lt;br&gt;&lt;/font&gt;&lt;/p&gt;" style="text;html=1;strokeColor=default;fillColor=#F8EBE7;spacing=5;spacingTop=-20;whiteSpace=wrap;overflow=hidden;rounded=0;" vertex="1" parent="1">
          <mxGeometry x="880" y="-100" width="360" height="410" as="geometry" />
        </mxCell>
        <mxCell id="-D2j0t36EasNuuJK0pfv-128" value="Categories:&lt;br&gt;GENERAL,&lt;br&gt;BUSINESS,&lt;br&gt;TRAVELING" style="text;html=1;align=center;verticalAlign=middle;whiteSpace=wrap;rounded=0;strokeColor=#000000;fillColor=#f5f5f5;fontColor=#000000;" vertex="1" parent="1">
          <mxGeometry x="130" y="130" width="90" height="70" as="geometry" />
        </mxCell>
        <mxCell id="-D2j0t36EasNuuJK0pfv-129" value="" style="endArrow=none;html=1;rounded=0;strokeWidth=2;strokeColor=#FF1D0D;" edge="1" parent="1">
          <mxGeometry width="50" height="50" relative="1" as="geometry">
            <mxPoint x="20" y="330" as="sourcePoint" />
            <mxPoint x="1362.2222222222222" y="330" as="targetPoint" />
          </mxGeometry>
        </mxCell>
        <mxCell id="-D2j0t36EasNuuJK0pfv-130" value="SortType:&lt;br&gt;RELEVANCY,&lt;br&gt;POPULARITY,&lt;br&gt;DATE" style="text;html=1;align=center;verticalAlign=middle;whiteSpace=wrap;rounded=0;strokeColor=#000000;fillColor=#f5f5f5;fontColor=#000000;" vertex="1" parent="1">
          <mxGeometry x="130" y="210" width="90" height="70" as="geometry" />
        </mxCell>
        <mxCell id="-D2j0t36EasNuuJK0pfv-131" value="&lt;h1&gt;&lt;span style=&quot;background-color: initial;&quot;&gt;Articles repository&lt;/span&gt;&lt;/h1&gt;&lt;div style=&quot;font-size: 14px;&quot;&gt;Необходим только на экране Saved и на экране Article. Нет нужды писать на Rx можно использовать корутины.&lt;/div&gt;" style="text;html=1;strokeColor=#000000;fillColor=#F8EBE7;spacing=5;spacingTop=-20;whiteSpace=wrap;overflow=hidden;rounded=0;" vertex="1" parent="1">
          <mxGeometry x="1260" y="-100" width="260" height="110" as="geometry" />
        </mxCell>
        <mxCell id="-D2j0t36EasNuuJK0pfv-132" value="" style="whiteSpace=wrap;html=1;" vertex="1" parent="1">
          <mxGeometry x="880" y="600" width="380" height="310" as="geometry" />
        </mxCell>
        <mxCell id="-D2j0t36EasNuuJK0pfv-133" value="&lt;b&gt;Sources Fragment&lt;/b&gt;" style="text;html=1;align=center;verticalAlign=middle;resizable=0;points=[];autosize=1;strokeColor=none;fillColor=none;" vertex="1" parent="1">
          <mxGeometry x="990" y="610" width="130" height="30" as="geometry" />
        </mxCell>
        <mxCell id="-D2j0t36EasNuuJK0pfv-134" value="" style="whiteSpace=wrap;html=1;fillColor=#f5f5f5;fontColor=#333333;strokeColor=#000000;" vertex="1" parent="1">
          <mxGeometry x="1080" y="640" width="170" height="260" as="geometry" />
        </mxCell>
        <mxCell id="-D2j0t36EasNuuJK0pfv-135" value="&lt;b&gt;Dependencies&lt;/b&gt;" style="text;html=1;align=center;verticalAlign=middle;resizable=0;points=[];autosize=1;strokeColor=none;fillColor=none;" vertex="1" parent="1">
          <mxGeometry x="1115" y="640" width="100" height="30" as="geometry" />
        </mxCell>
        <mxCell id="-D2j0t36EasNuuJK0pfv-136" value="SearchDataUseCaseRx" style="text;html=1;align=center;verticalAlign=middle;whiteSpace=wrap;rounded=0;fillColor=default;strokeColor=default;fontColor=#000000;" vertex="1" parent="1">
          <mxGeometry x="1090" y="670" width="150" height="20" as="geometry" />
        </mxCell>
        <mxCell id="-D2j0t36EasNuuJK0pfv-138" value="" style="whiteSpace=wrap;html=1;fillColor=#f5f5f5;fontColor=#333333;strokeColor=#000000;" vertex="1" parent="1">
          <mxGeometry x="890" y="640" width="170" height="260" as="geometry" />
        </mxCell>
        <mxCell id="-D2j0t36EasNuuJK0pfv-137" value="MVVM" style="text;html=1;align=center;verticalAlign=middle;whiteSpace=wrap;rounded=0;fillColor=default;strokeColor=default;fontColor=#000000;" vertex="1" parent="1">
          <mxGeometry x="900" y="670" width="150" height="21" as="geometry" />
        </mxCell>
        <mxCell id="-D2j0t36EasNuuJK0pfv-139" value="&lt;b&gt;Stack&lt;/b&gt;" style="text;html=1;align=center;verticalAlign=middle;resizable=0;points=[];autosize=1;strokeColor=none;fillColor=none;" vertex="1" parent="1">
          <mxGeometry x="945" y="640" width="60" height="30" as="geometry" />
        </mxCell>
        <mxCell id="-D2j0t36EasNuuJK0pfv-144" value="RxJava" style="text;html=1;align=center;verticalAlign=middle;whiteSpace=wrap;rounded=0;fillColor=default;strokeColor=default;fontColor=#000000;" vertex="1" parent="1">
          <mxGeometry x="900" y="700" width="150" height="21" as="geometry" />
        </mxCell>
        <mxCell id="-D2j0t36EasNuuJK0pfv-146" value="Kotlin" style="text;html=1;align=center;verticalAlign=middle;whiteSpace=wrap;rounded=0;fillColor=default;strokeColor=default;fontColor=#000000;" vertex="1" parent="1">
          <mxGeometry x="900" y="730" width="150" height="21" as="geometry" />
        </mxCell>
        <mxCell id="-D2j0t36EasNuuJK0pfv-147" value="&lt;h1&gt;&lt;span style=&quot;background-color: initial;&quot;&gt;Экран поиска&lt;/span&gt;&lt;/h1&gt;&lt;h1 style=&quot;font-size: 14px;&quot;&gt;&lt;span style=&quot;font-weight: 400;&quot;&gt;Поиск производить автоматически через 1секунду после завершения ввода пользователем.&amp;nbsp;&lt;/span&gt;&lt;/h1&gt;&lt;div&gt;&lt;span style=&quot;font-weight: 400; font-size: 14px;&quot;&gt;Добавить ProgressBar.&lt;/span&gt;&lt;span style=&quot;font-weight: 400;&quot;&gt;&lt;font size=&quot;1&quot;&gt;&amp;nbsp;&lt;/font&gt;&lt;/span&gt;&lt;/div&gt;&lt;div&gt;&lt;span style=&quot;font-weight: 400; font-size: 11px;&quot;&gt;&lt;font size=&quot;1&quot;&gt;&lt;br&gt;&lt;/font&gt;&lt;/span&gt;&lt;/div&gt;&lt;div&gt;&lt;span style=&quot;font-weight: 400;&quot;&gt;&lt;br&gt;&lt;/span&gt;&lt;/div&gt;" style="text;html=1;strokeColor=#000000;fillColor=#F8EBE7;spacing=5;spacingTop=-20;whiteSpace=wrap;overflow=hidden;rounded=0;" vertex="1" parent="1">
          <mxGeometry x="1260" y="25" width="260" height="135" as="geometry" />
        </mxCell>
        <mxCell id="-D2j0t36EasNuuJK0pfv-149" style="edgeStyle=orthogonalEdgeStyle;rounded=0;orthogonalLoop=1;jettySize=auto;html=1;exitX=1;exitY=0.5;exitDx=0;exitDy=0;entryX=0;entryY=0.5;entryDx=0;entryDy=0;" edge="1" parent="1" source="-D2j0t36EasNuuJK0pfv-148" target="-D2j0t36EasNuuJK0pfv-2">
          <mxGeometry relative="1" as="geometry" />
        </mxCell>
        <mxCell id="-D2j0t36EasNuuJK0pfv-151" style="edgeStyle=orthogonalEdgeStyle;rounded=0;orthogonalLoop=1;jettySize=auto;html=1;exitX=1;exitY=0.5;exitDx=0;exitDy=0;entryX=0;entryY=0.25;entryDx=0;entryDy=0;" edge="1" parent="1" source="-D2j0t36EasNuuJK0pfv-148" target="-D2j0t36EasNuuJK0pfv-6">
          <mxGeometry relative="1" as="geometry" />
        </mxCell>
        <mxCell id="-D2j0t36EasNuuJK0pfv-148" value="Data" style="text;html=1;align=center;verticalAlign=middle;whiteSpace=wrap;rounded=0;strokeColor=#000000;fillColor=#f5f5f5;fontColor=#000000;" vertex="1" parent="1">
          <mxGeometry x="130" y="80" width="70" height="20" as="geometry" />
        </mxCell>
        <mxCell id="-D2j0t36EasNuuJK0pfv-153" value="Language:&lt;br&gt;1. Russian,&amp;nbsp;&lt;br&gt;2. English,&lt;br&gt;3. Deutsch" style="text;html=1;align=center;verticalAlign=middle;whiteSpace=wrap;rounded=0;strokeColor=#000000;fillColor=#f5f5f5;fontColor=#000000;" vertex="1" parent="1">
          <mxGeometry x="380" y="69" width="90" height="80" as="geometry" />
        </mxCell>
        <mxCell id="-D2j0t36EasNuuJK0pfv-155" value="&lt;h1&gt;Toolbar&lt;/h1&gt;&lt;div style=&quot;font-size: 14px;&quot;&gt;&lt;font style=&quot;font-size: 14px;&quot;&gt;Toolbar относится к активити. Основные экраны: Headlines, Saved, Sources, не имеют своего toolbar.&lt;br&gt;&lt;/font&gt;&lt;/div&gt;" style="text;html=1;strokeColor=#000000;fillColor=#F8EBE7;spacing=5;spacingTop=-20;whiteSpace=wrap;overflow=hidden;rounded=0;" vertex="1" parent="1">
          <mxGeometry x="600" y="139" width="260" height="111" as="geometry" />
        </mxCell>
        <mxCell id="-D2j0t36EasNuuJK0pfv-156" value="&lt;h1&gt;Язык в фильтрах&lt;/h1&gt;&lt;div style=&quot;font-size: 14px;&quot;&gt;&lt;font style=&quot;font-size: 14px;&quot;&gt;По умолчанию поиск производится по трем языкам.&lt;/font&gt;&lt;/div&gt;&lt;div style=&quot;font-size: 14px;&quot;&gt;&lt;font style=&quot;font-size: 14px;&quot;&gt;На каждый язык необходимо сохранять свой флаг.&lt;/font&gt;&lt;/div&gt;" style="text;html=1;strokeColor=#000000;fillColor=#F8EBE7;spacing=5;spacingTop=-20;whiteSpace=wrap;overflow=hidden;rounded=0;" vertex="1" parent="1">
          <mxGeometry x="1260" y="180" width="260" height="130" as="geometry" />
        </mxCell>
        <mxCell id="-D2j0t36EasNuuJK0pfv-157" value="GetDataRepoRx" style="text;html=1;align=center;verticalAlign=middle;whiteSpace=wrap;rounded=0;fillColor=default;strokeColor=default;" vertex="1" parent="1">
          <mxGeometry x="579" y="-170" width="120" height="20" as="geometry" />
        </mxCell>
      </root>
    </mxGraphModel>
  </diagram>
</mxfile>
